<?xml version="1.0" encoding="utf-8"?>
<svg id="master-artboard" viewBox="0 0 1496.119140625 1248.4857177734375" version="1.1" xmlns="http://www.w3.org/2000/svg" x="0px" y="0px" style="enable-background:new 0 0 1400 980;" width="1496.119140625px" height="1248.4857177734375px"><defs><style id="ee-google-fonts">@import url(https://fonts.googleapis.com/css?family=Rubik:300,300italic,400,400italic,500,500italic,700,700italic,900,900italic);</style><radialGradient id="gradient-0" gradientUnits="objectBoundingBox" cx="0.5" cy="0.5" r="0.5">
                <stop offset="0" style="stop-color: #ffffff"/>
                <stop offset="1" style="stop-color: #cccccc"/>
              </radialGradient><radialGradient id="gradient-1" gradientUnits="objectBoundingBox" cx="0.47176462411880493" cy="0.4231003522872925" r="0.5">
                <stop offset="0" style="stop-color: #ffffff"/>
                <stop offset="1" style="stop-color: #cccccc"/>
              </radialGradient></defs><rect id="ee-background" x="0" y="0" width="1496.119140625" height="1248.4857177734375" style="fill: rgb(1, 1, 1); fill-opacity: 0.52; pointer-events: none;"/>








































<g transform="matrix(1, 0, 0, 1, 410.8591613769531, -13.0413818359375)"><path class="st0" d="M58,49h100v100H58V49z" style="fill: rgb(5, 238, 255);" transform="matrix(0.255858838558197, -0.7192220687866211, 0.08355481177568436, 0.029724014922976494, 389.2553768941068, 339.7218068200618)"/><path class="st0" d="M654,884c-29.2,0-53-23.8-53-53s23.8-53,53-53s53,23.8,53,53S683.2,884,654,884z M654,784&#10;&#9;&#9;&#9;&#9;c-25.9,0-47,21.1-47,47s21.1,47,47,47s47-21.1,47-47S679.9,784,654,784z" style="fill: rgb(5, 237, 255);" transform="matrix(0.2909591495990753, 0, 0, 0.2909591495990753, 491.2057568312548, -82.53737763371132)"/><path class="st0" d="M58,49h100v100H58V49z" style="fill: rgb(5, 237, 255); stroke: rgb(5, 237, 254);" transform="matrix(3.0872690677642822, -1.6110516786575317, 0.038919463753700256, 0.07458031177520752, 175.5527369909396, 414.56482551343464)"/><path class="st0" d="M58,49h100v100H58V49z" style="fill: rgb(5, 237, 255); stroke: rgb(5, 237, 254);" transform="matrix(3.0872690677642822, -1.6110516786575317, 0.038919463753700256, 0.07458031177520752, 254.00311657791008, 316.6106614561476)"/><path class="st0" d="M654,884c-29.2,0-53-23.8-53-53s23.8-53,53-53s53,23.8,53,53S683.2,884,654,884z M654,784&#10;&#9;&#9;&#9;&#9;c-25.9,0-47,21.1-47,47s21.1,47,47,47s47-21.1,47-47S679.9,784,654,784z" style="fill: rgb(5, 237, 255);" transform="matrix(0.2909591495990753, 0, 0, 0.2909591495990753, 570.1671837891217, -179.65950279920546)"/></g><g transform="matrix(1, 0, 0, 1, 119.55805206298828, -130.34115600585938)"><path class="st0" d="M58,49h100v100H58V49z" style="fill: rgb(5, 237, 255); stroke: rgb(5, 237, 254);" transform="matrix(3.0872690677642822, -1.6110516786575317, 0.038919463753700256, 0.07458031177520752, 729.3368638953098, 602.5274137635143)"/><path class="st0" d="M58,49h100v100H58V49z" style="fill: rgb(5, 237, 255); stroke: rgb(5, 237, 254);" transform="matrix(3.0872690677642822, -1.6110516786575317, 0.038919463753700256, 0.07458031177520752, 530.7186358380113, 656.2080175907614)"/><path class="st0" d="M654,884c-29.2,0-53-23.8-53-53s23.8-53,53-53s53,23.8,53,53S683.2,884,654,884z M654,784&#10;&#9;&#9;&#9;&#9;c-25.9,0-47,21.1-47,47s21.1,47,47,47s47-21.1,47-47S679.9,784,654,784z" style="fill: rgb(5, 237, 255);" transform="matrix(0.2909591495990753, 0, 0, 0.2909591495990753, 846.8825809789084, 159.9379448881439)"/><path class="st0" d="M58,49h100v100H58V49z" style="fill: rgb(5, 238, 255);" transform="matrix(0.7366363406181335, 0.13331590592861176, -0.01627080701291561, 0.08990348130464554, 799.1069455013712, 486.6249462161204)"/><path class="st0" d="M654,884c-29.2,0-53-23.8-53-53s23.8-53,53-53s53,23.8,53,53S683.2,884,654,884z M654,784&#10;&#9;&#9;&#9;&#9;c-25.9,0-47,21.1-47,47s21.1,47,47,47s47-21.1,47-47S679.9,784,654,784z" style="fill: rgb(5, 237, 255);" transform="matrix(0.2909591495990753, 0, 0, 0.2909591495990753, 1043.7669833267773, 105.7967926531552)"/></g><g transform="matrix(1, 0, 0, 1, 133.129150390625, -475.6985168457031)"><path class="st0" d="M654,884c-29.2,0-53-23.8-53-53s23.8-53,53-53s53,23.8,53,53S683.2,884,654,884z M654,784&#10;&#9;&#9;&#9;&#9;c-25.9,0-47,21.1-47,47s21.1,47,47,47s47-21.1,47-47S679.9,784,654,784z" style="fill: rgb(5, 237, 255);" transform="matrix(0.2909591495990753, 0, 0, 0.2909591495990753, 1122.6961837216638, 599.3094571725942)"/><path class="st0" d="M654,884c-29.2,0-53-23.8-53-53s23.8-53,53-53s53,23.8,53,53S683.2,884,654,884z M654,784&#10;&#9;&#9;&#9;&#9;c-25.9,0-47,21.1-47,47s21.1,47,47,47s47-21.1,47-47S679.9,784,654,784z" style="fill: rgb(5, 237, 255);" transform="matrix(0.2909591495990753, 0, 0, 0.2909591495990753, 924.3827652392199, 651.6248876396548)"/><path class="st0" d="M58,49h100v100H58V49z" style="fill: rgb(5, 238, 255);" transform="matrix(0.748717188835144, 0.13761217892169952, -0.015211638994514942, 0.08276146650314331, 874.5993782669209, 979.9796288606467)"/><path class="st0" d="M58,49h100v100H58V49z" style="fill: rgb(5, 237, 255); stroke: rgb(5, 237, 254);" transform="matrix(3.0872690677642822, -1.6110516786575317, 0.038919463753700256, 0.07458031177520752, 807.5661741430486, 1095.5962077319055)"/><path class="st0" d="M58,49h100v100H58V49z" style="fill: rgb(5, 237, 255); stroke: rgb(5, 237, 254);" transform="matrix(3.0872690677642822, -1.6110516786575317, 0.038919463753700256, 0.07458031177520752, 608.21888113348, 1147.8950366362187)"/></g><path class="st0" d="M160.2,1162H49.8l55.2-96.6L160.2,1162z M60.2,1156h89.7l-44.8-78.5L60.2,1156z" style="fill: rgb(5, 237, 255);" transform="matrix(4.438405990600586, 0, 0, 4.438405990600586, 267.0892028808594, -4489.396179199219)"/><g transform="matrix(-1, 0, 0, 1, 1053.50830078125, -11.036041259765625)"><path class="st0" d="M58,49h100v100H58V49z" style="fill: rgb(5, 238, 255);" transform="matrix(0.255858838558197, -0.7192220687866211, 0.08355481177568436, 0.029724014922976494, 389.2553768941068, 339.7218068200618)"/><path class="st0" d="M654,884c-29.2,0-53-23.8-53-53s23.8-53,53-53s53,23.8,53,53S683.2,884,654,884z M654,784&#10;&#9;&#9;&#9;&#9;c-25.9,0-47,21.1-47,47s21.1,47,47,47s47-21.1,47-47S679.9,784,654,784z" style="fill: rgb(5, 237, 255);" transform="matrix(0.2909591495990753, 0, 0, 0.2909591495990753, 491.2057568312548, -82.53737763371132)"/><path class="st0" d="M58,49h100v100H58V49z" style="fill: rgb(5, 237, 255); stroke: rgb(5, 237, 254);" transform="matrix(3.0872690677642822, -1.6110516786575317, 0.038919463753700256, 0.07458031177520752, 175.5527369909396, 414.56482551343464)"/><path class="st0" d="M58,49h100v100H58V49z" style="fill: rgb(5, 237, 255); stroke: rgb(5, 237, 254);" transform="matrix(3.0872690677642822, -1.6110516786575317, 0.038919463753700256, 0.07458031177520752, 254.00311657791008, 316.6106614561476)"/><path class="st0" d="M654,884c-29.2,0-53-23.8-53-53s23.8-53,53-53s53,23.8,53,53S683.2,884,654,884z M654,784&#10;&#9;&#9;&#9;&#9;c-25.9,0-47,21.1-47,47s21.1,47,47,47s47-21.1,47-47S679.9,784,654,784z" style="fill: rgb(5, 237, 255);" transform="matrix(0.2909591495990753, 0, 0, 0.2909591495990753, 570.1671837891217, -179.65950279920546)"/></g><g transform="matrix(-1, 0, 0, 1, 1349.567138671875, -131.55384826660156)"><path class="st0" d="M58,49h100v100H58V49z" style="fill: rgb(5, 237, 255); stroke: rgb(5, 237, 254);" transform="matrix(3.0872690677642822, -1.6110516786575317, 0.038919463753700256, 0.07458031177520752, 729.3368638953098, 602.5274137635143)"/><path class="st0" d="M58,49h100v100H58V49z" style="fill: rgb(5, 237, 255); stroke: rgb(5, 237, 254);" transform="matrix(3.0872690677642822, -1.6110516786575317, 0.038919463753700256, 0.07458031177520752, 530.7186358380113, 656.2080175907614)"/><path class="st0" d="M654,884c-29.2,0-53-23.8-53-53s23.8-53,53-53s53,23.8,53,53S683.2,884,654,884z M654,784&#10;&#9;&#9;&#9;&#9;c-25.9,0-47,21.1-47,47s21.1,47,47,47s47-21.1,47-47S679.9,784,654,784z" style="fill: rgb(5, 237, 255);" transform="matrix(0.2909591495990753, 0, 0, 0.2909591495990753, 846.8825809789084, 159.9379448881439)"/><path class="st0" d="M58,49h100v100H58V49z" style="fill: rgb(5, 238, 255);" transform="matrix(0.7366363406181335, 0.13331590592861176, -0.01627080701291561, 0.08990348130464554, 799.1069455013712, 486.6249462161204)"/><path class="st0" d="M654,884c-29.2,0-53-23.8-53-53s23.8-53,53-53s53,23.8,53,53S683.2,884,654,884z M654,784&#10;&#9;&#9;&#9;&#9;c-25.9,0-47,21.1-47,47s21.1,47,47,47s47-21.1,47-47S679.9,784,654,784z" style="fill: rgb(5, 237, 255);" transform="matrix(0.2909591495990753, 0, 0, 0.2909591495990753, 1043.7669833267773, 105.7967926531552)"/></g><g transform="matrix(-1, 0, 0, 1, 1351.099853515625, -483.7239074707031)"><path class="st0" d="M654,884c-29.2,0-53-23.8-53-53s23.8-53,53-53s53,23.8,53,53S683.2,884,654,884z M654,784&#10;&#9;&#9;&#9;&#9;c-25.9,0-47,21.1-47,47s21.1,47,47,47s47-21.1,47-47S679.9,784,654,784z" style="fill: rgb(5, 237, 255);" transform="matrix(0.2909591495990753, 0, 0, 0.2909591495990753, 1122.6961837216638, 599.3094571725942)"/><path class="st0" d="M654,884c-29.2,0-53-23.8-53-53s23.8-53,53-53s53,23.8,53,53S683.2,884,654,884z M654,784&#10;&#9;&#9;&#9;&#9;c-25.9,0-47,21.1-47,47s21.1,47,47,47s47-21.1,47-47S679.9,784,654,784z" style="fill: rgb(5, 237, 255);" transform="matrix(0.2909591495990753, 0, 0, 0.2909591495990753, 924.3827652392199, 651.6248876396548)"/><path class="st0" d="M58,49h100v100H58V49z" style="fill: rgb(5, 238, 255);" transform="matrix(0.748717188835144, 0.13761217892169952, -0.015211638994514942, 0.08276146650314331, 874.5993782669209, 979.9796288606467)"/><path class="st0" d="M58,49h100v100H58V49z" style="fill: rgb(5, 237, 255); stroke: rgb(5, 237, 254);" transform="matrix(3.0872690677642822, -1.6110516786575317, 0.038919463753700256, 0.07458031177520752, 807.5661741430486, 1095.5962077319055)"/><path class="st0" d="M58,49h100v100H58V49z" style="fill: rgb(5, 237, 255); stroke: rgb(5, 237, 254);" transform="matrix(3.0872690677642822, -1.6110516786575317, 0.038919463753700256, 0.07458031177520752, 608.21888113348, 1147.8950366362187)"/></g><g transform="matrix(-0.48029419779777527, 0.8771158456802368, -0.8771158456802368, -0.48029419779777527, 1338.0760498046875, 489.01995849609375)"><path class="st0" d="M58,49h100v100H58V49z" style="fill: rgb(5, 238, 255);" transform="matrix(0.255858838558197, -0.7192220687866211, 0.08355481177568436, 0.029724014922976494, 389.2553768941068, 339.7218068200618)"/><path class="st0" d="M654,884c-29.2,0-53-23.8-53-53s23.8-53,53-53s53,23.8,53,53S683.2,884,654,884z M654,784&#10;&#9;&#9;&#9;&#9;c-25.9,0-47,21.1-47,47s21.1,47,47,47s47-21.1,47-47S679.9,784,654,784z" style="fill: rgb(5, 237, 255);" transform="matrix(0.2909591495990753, 0, 0, 0.2909591495990753, 491.2057568312548, -82.53737763371132)"/><path class="st0" d="M58,49h100v100H58V49z" style="fill: rgb(5, 237, 255); stroke: rgb(5, 237, 254);" transform="matrix(3.0872690677642822, -1.6110516786575317, 0.038919463753700256, 0.07458031177520752, 175.5527369909396, 414.56482551343464)"/><path class="st0" d="M58,49h100v100H58V49z" style="fill: rgb(5, 237, 255); stroke: rgb(5, 237, 254);" transform="matrix(3.0872690677642822, -1.6110516786575317, 0.038919463753700256, 0.07458031177520752, 254.00311657791008, 316.6106614561476)"/><path class="st0" d="M654,884c-29.2,0-53-23.8-53-53s23.8-53,53-53s53,23.8,53,53S683.2,884,654,884z M654,784&#10;&#9;&#9;&#9;&#9;c-25.9,0-47,21.1-47,47s21.1,47,47,47s47-21.1,47-47S679.9,784,654,784z" style="fill: rgb(5, 237, 255);" transform="matrix(0.2909591495990753, 0, 0, 0.2909591495990753, 570.1671837891217, -179.65950279920546)"/></g><g transform="matrix(-0.4746965169906616, 0.8801658153533936, -0.8801658153533936, -0.4746965169906616, 1579.2650146484375, 292.98095703125)"><path class="st0" d="M58,49h100v100H58V49z" style="fill: rgb(5, 237, 255); stroke: rgb(5, 237, 254);" transform="matrix(3.0872690677642822, -1.6110516786575317, 0.038919463753700256, 0.07458031177520752, 729.3368638953098, 602.5274137635143)"/><path class="st0" d="M58,49h100v100H58V49z" style="fill: rgb(5, 237, 255); stroke: rgb(5, 237, 254);" transform="matrix(3.0872690677642822, -1.6110516786575317, 0.038919463753700256, 0.07458031177520752, 530.7186358380113, 656.2080175907614)"/><path class="st0" d="M654,884c-29.2,0-53-23.8-53-53s23.8-53,53-53s53,23.8,53,53S683.2,884,654,884z M654,784&#10;&#9;&#9;&#9;&#9;c-25.9,0-47,21.1-47,47s21.1,47,47,47s47-21.1,47-47S679.9,784,654,784z" style="fill: rgb(5, 237, 255);" transform="matrix(0.2909591495990753, 0, 0, 0.2909591495990753, 846.8825809789084, 159.9379448881439)"/><path class="st0" d="M58,49h100v100H58V49z" style="fill: rgb(5, 238, 255);" transform="matrix(0.7366363406181335, 0.13331590592861176, -0.01627080701291561, 0.08990348130464554, 799.1069455013712, 486.6249462161204)"/><path class="st0" d="M654,884c-29.2,0-53-23.8-53-53s23.8-53,53-53s53,23.8,53,53S683.2,884,654,884z M654,784&#10;&#9;&#9;&#9;&#9;c-25.9,0-47,21.1-47,47s21.1,47,47,47s47-21.1,47-47S679.9,784,654,784z" style="fill: rgb(5, 237, 255);" transform="matrix(0.2909591495990753, 0, 0, 0.2909591495990753, 1043.7669833267773, 105.7967926531552)"/></g><g transform="matrix(-0.48737233877182007, 0.8732118010520935, -0.8732118010520935, -0.48737233877182007, 1899.4906005859375, 479.295654296875)"><path class="st0" d="M654,884c-29.2,0-53-23.8-53-53s23.8-53,53-53s53,23.8,53,53S683.2,884,654,884z M654,784&#10;&#9;&#9;&#9;&#9;c-25.9,0-47,21.1-47,47s21.1,47,47,47s47-21.1,47-47S679.9,784,654,784z" style="fill: rgb(5, 237, 255);" transform="matrix(0.2909591495990753, 0, 0, 0.2909591495990753, 1122.6961837216638, 599.3094571725942)"/><path class="st0" d="M654,884c-29.2,0-53-23.8-53-53s23.8-53,53-53s53,23.8,53,53S683.2,884,654,884z M654,784&#10;&#9;&#9;&#9;&#9;c-25.9,0-47,21.1-47,47s21.1,47,47,47s47-21.1,47-47S679.9,784,654,784z" style="fill: rgb(5, 237, 255);" transform="matrix(0.2909591495990753, 0, 0, 0.2909591495990753, 924.3827652392199, 651.6248876396548)"/><path class="st0" d="M58,49h100v100H58V49z" style="fill: rgb(5, 238, 255);" transform="matrix(0.748717188835144, 0.13761217892169952, -0.015211638994514942, 0.08276146650314331, 874.5993782669209, 979.9796288606467)"/><path class="st0" d="M58,49h100v100H58V49z" style="fill: rgb(5, 237, 255); stroke: rgb(5, 237, 254);" transform="matrix(3.0872690677642822, -1.6110516786575317, 0.038919463753700256, 0.07458031177520752, 807.5661741430486, 1095.5962077319055)"/><path class="st0" d="M58,49h100v100H58V49z" style="fill: rgb(5, 237, 255); stroke: rgb(5, 237, 254);" transform="matrix(3.0872690677642822, -1.6110516786575317, 0.038919463753700256, 0.07458031177520752, 608.21888113348, 1147.8950366362187)"/></g></svg>